<?xml version="1.0" encoding="UTF-8" standalone="no"?>
<!-- Created with Inkscape (http://www.inkscape.org/) -->

<svg
   width="130mm"
   height="50.472mm"
   viewBox="0 0 130 50.472"
   version="1.1"
   id="svg1"
   inkscape:version="1.4.2 (f4327f4, 2025-05-13)"
   sodipodi:docname="economic-brain-lab_site-logo.svg"
   xmlns:inkscape="http://www.inkscape.org/namespaces/inkscape"
   xmlns:sodipodi="http://sodipodi.sourceforge.net/DTD/sodipodi-0.dtd"
   xmlns="http://www.w3.org/2000/svg"
   xmlns:svg="http://www.w3.org/2000/svg">
  <sodipodi:namedview
     id="namedview1"
     pagecolor="#ffffff"
     bordercolor="#000000"
     borderopacity="0.25"
     inkscape:showpageshadow="2"
     inkscape:pageopacity="0.0"
     inkscape:pagecheckerboard="0"
     inkscape:deskcolor="#d1d1d1"
     inkscape:document-units="mm"
     inkscape:zoom="2.0000001"
     inkscape:cx="133.24999"
     inkscape:cy="53.249997"
     inkscape:current-layer="g255" />
  <defs
     id="defs1" />
  <g
     inkscape:label="Layer 1"
     inkscape:groupmode="layer"
     id="layer1">
    <g
       id="g255"
       inkscape:export-filename="..\BrandPack\EBL_Logo-L_DPI-300.png"
       inkscape:export-xdpi="300"
       inkscape:export-ydpi="300"
       transform="translate(-98.495956,194.28701)">
      <g
         id="g1"
         inkscape:export-filename="..\BrandPack\economic-brain-lab_logo-H.png"
         inkscape:export-xdpi="300"
         inkscape:export-ydpi="300">
        <path
           d="m 126.5714,-189.7566 c 1.00408,-0.13808 2.06116,-0.0753 3.0876,0 1.02082,0.0749 2.05463,0.22777 3.0378,0.4482 1.40564,0.28424 2.67417,0.8995 4.0338,1.2948 1.55788,0.54583 2.9792,1.42136 4.3824,2.3406 1.82956,1.23 3.55088,2.85729 5.1294,4.5816 1.07547,1.27731 2.11175,2.57084 2.739,4.0338 0.89394,1.29749 1.79422,2.59235 2.3406,4.0338 0.52856,1.24492 0.76834,2.60945 1.3446,3.8346 0.29506,1.04332 0.69789,2.042 0.747,3.1872 0.1574,0.8211 0.0793,1.70661 0,2.53981 -0.10769,0.5645 0.086,1.20521 -0.0498,1.7928 -0.0439,1.14734 -0.37135,2.17726 -0.747,3.1872 -0.32399,0.82762 -0.92242,1.54157 -1.1952,2.3904 -0.56798,0.9818 -1.29102,2.01727 -2.2908,2.6892 -0.76956,0.72003 -1.52263,1.47989 -2.4402,1.8426 -0.64721,0.42921 -1.39,0.62767 -2.0418,1.0458 -0.59328,0.1601 -1.10299,0.45619 -1.70792,0.56252 -0.35643,0.0626 -0.42566,0.12333 -0.98128,0.13468 -0.99504,0.0114 -1.99115,0.0255 -2.8884,-0.1992 -0.98856,0.45075 -2.03268,0.76734 -3.237,0.6972 -0.93882,0.12461 -1.96707,0.0332 -2.8884,-0.0498 -0.85188,-0.12005 -1.70697,-0.23235 -2.5398,-0.3984 -0.70844,-0.22908 -1.48905,-0.39056 -2.1414,-0.6474 -0.60343,-0.20931 -1.20611,-0.41797 -1.743,-0.6972 -0.5269,0.1088 -0.88956,0.61409 -1.3446,0.8964 -0.69518,0.69352 -1.51397,1.08863 -2.3904,1.3446 -0.76838,0.26218 -1.75823,0.2646 -2.6892,0.249 -0.81851,-0.14678 -1.65417,-0.25217 -2.3904,-0.5976 -0.45565,-0.20183 -0.92305,-0.37531 -1.494,-0.2988 -0.66209,-0.0904 -1.36644,-0.0789 -1.8924,-0.498 -1.09867,-0.55978 -1.92841,-1.6442 -2.739,-2.5896 -0.54989,-0.42656 -1.16343,-0.69943 -1.6434,-1.2948 -0.62168,-0.54865 -1.21056,-1.25273 -1.5936,-1.8924 -1.4662,-0.62479 -2.63615,-2.12338 -3.3366,-3.486 -0.3544,-0.79037 -0.38216,-1.71604 -0.8964,-2.4402 -0.37886,-1.09043 -0.57123,-2.25812 -0.498,-3.53581 0.0433,-0.81442 0.31008,-1.53628 0.498,-2.2908 -0.50074,-1.08932 -0.69727,-2.39246 -0.5478,-3.6852 0.0971,-1.43905 0.51429,-2.74551 1.0956,-3.984 0.84471,-1.35392 1.32085,-2.86052 2.241,-4.1832 0.94246,-1.61305 2.41508,-3.07264 3.8844,-4.3824 1.3554,-1.09704 2.72819,-2.15208 4.233,-2.8884 1.16945,-0.67352 2.42452,-1.14033 3.6852,-1.5936 1.0966,-0.39313 2.22334,-0.71351 3.3864,-0.9462 0.92452,-0.24871 1.94354,-0.26924 2.9382,-0.3486 0.4811,-0.13578 0.99868,-0.22261 1.5438,-0.1992 z"
           fill="none"
           stroke="#ff0000"
           stroke-linecap="round"
           stroke-linejoin="round"
           stroke-width="0.15875"
           id="path234"
           style="fill:#b4417e;fill-opacity:1;stroke:#b4417e;stroke-width:1.05833;stroke-dasharray:none;stroke-opacity:1"
           sodipodi:nodetypes="cacccccccccccccccsccccccccccccccccccccccccccccc" />
        <path
           id="path235"
           style="fill:#f6b780;fill-opacity:1;stroke-width:0.13229167;stroke:#b4417e;stroke-opacity:1;stroke-dasharray:none"
           d="m 123.99171,-188.81035 c 0.58061,-0.0115 0.28671,0.12294 -0.0996,0.1494 -0.91285,0.0685 -1.71987,0.39242 -2.39044,1.04582 -0.20672,0.36925 -0.38544,0.79473 -0.89641,0.74701 -0.47094,0.14148 -0.94207,0.28249 -1.44422,0.34861 0.17855,-0.1857 0.65958,-0.2401 0.94621,-0.39841 0.47291,-0.11528 0.96008,-0.24104 1.19522,-0.74701 0.71712,-0.79821 1.70939,-0.98151 2.68924,-1.14542 z m -11.65338,6.0259 c -1.35293,0.15616 -2.39668,1.05874 -3.38646,2.09163 -0.46338,0.51689 0.003,-0.29339 0.24901,-0.44821 0.59446,-0.711 1.32441,-1.29338 2.09163,-1.69322 0.47237,-0.90799 1.60105,-0.92921 2.14143,-1.79283 0.5655,-0.51601 1.20462,-0.85429 1.84263,-1.19522 0.0114,0.2615 -0.58439,0.36314 -0.79681,0.59761 -0.68702,0.49913 -1.26608,1.2589 -2.04183,1.54382 -0.13787,0.2371 -0.95231,0.57126 -0.54781,0.74702 m 23.2446,-2.36248 c 0.54903,-1.19805 0.76001,-0.39371 1.88468,-0.91293 0.34167,-0.15774 1.2562,0.0123 1.07576,0.34256 -0.12896,0.23604 -0.42928,-0.37376 -1.46279,-0.009 -0.50475,0.17814 -0.98003,-0.0902 -1.49765,0.57935 z m -2.44324,-0.73013 c 0.88636,0.35106 1.54196,1.25926 2.29084,1.94223 1.09342,1.231 1.8547,2.35835 2.70461,3.69022 0.91052,1.37767 1.7097,2.80147 2.49004,4.23306 0.53181,1.00147 1.11155,1.98307 1.39442,3.08765 0.13104,0.60696 -0.14685,0.9828 -0.84661,0.94622 -0.69976,-0.0366 -1.62443,0.42613 -1.98005,-0.18019 -0.76487,-1.30409 -1.40817,-2.80848 -2.16785,-4.12438 -0.84926,-1.51473 -1.6266,-2.81804 -2.70461,-4.23802 -0.87235,-1.1938 -2.85782,-3.12705 -3.91659,-4.27505 -0.37622,-0.40793 1.71141,-0.68203 1.98879,-0.68333 0.83237,-0.004 1.38891,0.74941 1.99203,1.34462 1.13392,1.05659 1.83411,2.17705 2.70461,3.39141 0.96185,1.43372 1.87156,2.88903 2.68925,4.38247 0.63869,1.30128 1.3677,2.56515 1.84263,3.93426 0.44638,0.13019 0.2594,-0.59323 0.1992,-0.84661 -0.44352,-1.25905 -1.15593,-2.40671 -1.79283,-3.58566 -0.83593,-1.50935 -1.74832,-2.98703 -2.73904,-4.43227 -1.21352,-1.63411 -2.41393,-3.22811 -4.09904,-4.48703 -0.0913,0.0415 -0.0332,-0.0664 -0.0498,-0.0996 z m -5.36311,0.20416 c 0.0791,0.24602 -0.64271,0.44522 -0.59761,0.84661 -0.36702,0.54911 0.1878,1.17362 0.74701,1.19522 0.39256,0.22056 0.94588,0.23939 1.29482,0.44821 -0.31069,0.0205 -0.84328,-0.15741 -1.24502,-0.1992 -0.71683,-0.28709 -1.57376,-0.5568 -2.39044,-0.29881 -1.35081,0.27514 -2.42609,1.63957 -2.93825,2.83865 -0.36842,1.05309 -0.43826,2.54161 0.64741,3.23705 0.44626,0.29678 1.14424,0.17571 1.59363,0.3486 -0.7905,0.0353 -1.82457,0.0478 -2.29084,-0.74701 -0.48834,-0.7038 -0.41623,-1.66331 -0.3486,-2.53984 0.0987,-0.22141 0.10173,-0.55659 0.3984,-0.69721 -0.24873,-0.46623 0.27825,-0.39949 0.39841,-0.74701 0.14074,-0.32262 0.71757,-0.63816 0.34861,-0.94622 0.39839,0.33655 0.59162,-0.26751 0.64741,-0.3984 0.66827,-0.0521 1.13191,-0.59819 1.84263,-0.54781 0.32988,-0.18699 1.16875,0.22362 0.99601,-0.44821 -0.0146,-0.62128 0.39266,-1.04838 0.89642,-1.34462 z m 12.78343,0.99106 c 0.14365,0.24236 -0.004,0.7104 0.46011,0.43673 0.22916,-0.3531 -0.0752,0.20999 0.30227,0.0164 0.27081,0.0157 0.85208,0.1398 0.24901,0.1494 -0.90223,-0.18335 -1.78083,0.43853 -2.00741,1.38947 0.41265,0.59456 0.61798,1.03377 0.86199,1.69818 0.21427,0.50359 -0.29501,-0.25574 -0.34861,-0.4482 -0.54506,-0.86269 -1.15964,-1.45535 -1.7584,-2.29579 0.31886,0.08 0.73937,0.86636 0.94622,0.249 0.14894,-0.0712 -0.23564,0.9162 0.249,0.39841 0.0935,-0.58258 0.78072,-0.69775 1.09562,-1.04582 -0.0649,-0.15146 -0.0687,-0.4281 -0.0498,-0.54781 z m -12.18582,2.19619 c 0.26781,0.15914 -0.0763,0.6545 -0.0498,0.94622 -0.14469,0.51111 0.48489,0.10169 0.3486,-0.24901 0.29523,-0.54301 0.0772,0.21308 0,0.44821 0.37037,0.5901 0.39647,-0.37957 0.64741,-0.44821 -0.0129,0.24975 -0.46396,0.94886 0.0996,0.74701 0.14902,-0.33918 0.63646,-0.77008 0.249,-0.1992 -0.39201,0.42314 0.15175,0.67373 0.34861,0.1494 0.41907,-0.21076 -0.52925,0.5302 0.0498,0.64741 0.37292,0.3103 0.58543,0.003 0.84661,-0.1992 -0.39277,0.3183 -0.0556,0.61191 0.34861,0.54781 0.41051,-0.18017 0.29298,-0.42045 0.44821,0.0498 0.13608,0.1045 0.98395,-0.002 0.5478,0.1494 -1.2672,0.0822 -2.37826,-0.21249 -3.28685,-0.99601 -0.49772,-0.32017 -1.32303,-0.0132 -1.64342,-0.64741 0.11679,-0.13325 0.653,0.5118 0.84661,0.0498 0.0682,-0.3295 0.22712,-0.62602 0.1992,-0.99602 z m -1.74304,6.77291 c -0.18761,0.77529 -0.12356,1.65482 -0.64741,2.29083 -0.83901,1.3134 -2.39513,2.32975 -2.29083,4.03387 0.044,0.70811 0.43967,1.38131 1.09561,1.74303 1.1805,0.72706 2.6598,0.73275 3.78487,1.59362 0.94061,0.6313 1.00163,1.74642 0.94621,2.83866 0.0728,0.64258 0.0538,1.45268 0.74701,1.74303 0.86893,0.0441 1.61461,-0.20931 2.49004,-0.14941 0.40682,-0.089 0.8997,0.0297 1.14542,-0.4482 0.70482,-1.18734 0.69278,-2.74216 1.99203,-3.63547 0.29296,-0.23099 0.86724,-0.42403 0.44821,-0.84661 -0.39313,-1.07305 -1.39532,-1.82148 -2.24104,-2.68925 -0.5014,-0.66936 -0.74502,-1.5655 -0.4482,-2.39044 0.13527,-0.29197 0.36101,-0.73722 -0.14941,-0.79681 -0.99322,-0.39944 -2.1396,-0.42915 -3.18725,-0.69721 -0.31253,0.10794 -0.4794,0.89635 -0.64741,0.64741 0.0986,-0.35421 0.73236,-0.62306 0.34861,-0.99602 -0.1373,-0.33398 -0.71779,-0.0374 -0.99602,0 -1.24888,0.38289 -2.16829,1.7332 -1.84263,3.08765 0.15574,0.50572 0.46852,0.30719 0.29881,-0.1494 0.0547,-0.61777 0.10197,0.12625 0.1494,0.34861 -0.056,0.29775 0.28648,0.92116 0.54781,0.64741 -0.0239,-0.19796 -0.28186,-0.83247 -0.0498,-0.74701 0.0953,0.43086 0.0348,1.14841 0.64741,1.14541 0.19371,-0.17833 -0.28587,-0.93657 0.0498,-0.64741 0.0753,0.34379 0.10429,1.05253 0.59761,0.89642 -0.13033,-0.29751 -0.0413,-0.84196 0.0498,-0.24901 -0.1053,0.40338 0.61147,0.84674 0.49801,0.19921 0.25039,0.1313 0.0955,0.71901 0.54781,0.74701 1.03857,0.68554 1.53792,1.80986 1.49402,3.03785 0.10395,0.61857 -0.0439,1.31278 -0.1992,1.89244 -0.23346,0.50473 -0.0478,-0.23801 0,-0.44821 0.20717,-0.99256 0.0544,-2.08281 -0.24901,-2.98806 -0.48029,-0.98343 -1.4895,-1.62816 -2.44023,-1.99203 -0.75128,-0.414 -1.90055,-0.62361 -2.09164,-1.64342 -0.27769,-0.85203 -4.9e-4,-1.81642 0.59761,-2.44024 0.5997,-0.72773 1.43965,-0.87545 2.29084,-0.99602 -0.0556,-0.54844 0.0787,-1.12484 0.0498,-1.59363 -0.46665,0.01 0.60311,-0.41559 0.0498,-0.5478 -0.2562,-0.1157 0.55232,-0.20682 0.44821,-0.59761 -0.48446,-0.0404 -0.42561,-0.19401 0.0498,-0.19921 0.61854,-0.24989 -0.45076,-0.4417 0.0996,-0.4482 0.4744,0.032 0.31595,-0.46103 0.69721,-0.59761 0.3362,-0.26542 0.649,-0.54058 0.99601,-0.69722 -0.32155,0.39307 -0.9144,0.7629 -1.14541,1.29483 -0.71956,0.94884 -1.15124,2.01692 -1.09562,3.28685 0.0738,0.67433 0.84106,0.70079 1.39442,0.74701 0.87032,0.13509 1.70849,0.34781 2.49004,0.69721 0.39953,-0.56375 0.97951,-0.9122 1.64343,-0.94621 -0.1826,0.20623 -0.72783,0.14588 -0.94622,0.498 -0.69808,0.49894 -0.84606,1.34647 -0.94621,2.14144 0.093,0.19176 0.0624,0.94567 0.3486,0.64741 -0.0376,-0.56428 0.1761,-0.23196 0.0996,0.1494 -0.0391,0.25319 0.17963,0.93693 0.44821,0.64741 -0.0566,-0.2483 0.0688,-0.9196 0.0996,-0.3486 -0.009,0.42285 0.01,0.97523 0.49801,1.09561 0.1423,-0.17259 -0.18783,-0.91577 0.0498,-0.74701 0.10251,0.46526 0.0218,1.15122 0.54781,1.34462 0.1804,-0.20751 -0.166,-0.82611 0.0996,-0.79681 0.0659,0.53409 -0.0317,1.20869 0.3984,1.54383 0.33371,-0.0597 0.026,-0.76262 0.29881,-0.84662 0.0363,0.5877 -0.34238,1.3725 0.1494,1.79283 0.27691,-0.39056 0.26091,-1.02639 0.34861,-1.54382 0.21124,-0.1 0.005,0.54833 0,0.74701 -0.0548,0.27209 -0.24472,0.8231 0.249,0.59761 0.39111,-0.0555 0.18163,-0.69543 0.44821,-0.79681 0.0203,0.25363 -0.29736,0.86479 0.1992,0.6474 1.55946,-0.0441 2.84109,0.58248 3.98407,1.54383 0.42926,0.45085 0.7993,0.92622 0.94621,1.49403 -0.31732,-0.25056 -0.40747,-0.84884 -0.84661,-1.14542 -0.71,-0.74602 -1.65268,-1.22845 -2.58965,-1.54383 -1.12863,-0.29525 -2.47628,-0.20642 -3.33665,0.59761 -1.1352,0.78308 -1.40088,2.04798 -1.79283,3.18726 -0.1764,0.57872 -0.61426,1.16071 -1.34462,0.99602 -0.77034,0.0501 -1.53589,0.1119 -2.29083,0.1992 -0.90784,0.13803 -1.36567,-0.76784 -1.34462,-1.54382 -0.13733,-0.91517 0.1315,-1.99859 -0.54781,-2.68926 -0.91843,-1.2091 -2.47198,-1.17924 -3.68526,-1.79283 -0.9945,-0.32046 -1.71992,-1.29757 -1.64343,-2.39044 -0.001,-0.9514 0.68636,-1.61757 0.99601,-2.44023 0.006,-0.18133 0.15263,-0.96218 0.24901,-0.54781 -0.31615,0.57489 0.28226,0.32585 0.44821,-0.0498 0.0349,-0.33274 0.1105,-0.57202 0.1494,-0.74702 0.12729,0.59255 0.7463,-0.16354 0.1992,-0.3486 -0.17272,-0.57473 0.43868,0.54967 0.49801,-0.1494 0.3711,-0.20964 -0.40247,-0.8502 0,-0.74702 0.34424,0.34895 0.29592,-0.47246 0.0498,-0.59761 0.13892,0.001 0.31126,-0.30359 0.249,-0.5976 0.40875,-0.10651 0.40888,-0.73815 0.79682,-0.99602 0.29873,-0.41531 -0.007,0.0975 -0.49801,1.19522 z m 17.33068,-2.14144 c 0.10183,0.23431 -0.24488,0.84536 0.29881,0.59761 0.0968,-0.26671 0.42724,-0.86163 0.249,-0.249 0.14573,0.38147 0.58601,0.0446 0.59761,-0.1992 -0.14421,0.27373 0.33102,0.52964 0.54781,0.249 0.10491,-0.18449 0.23571,0.32338 0.64741,0.249 0.39095,0.1767 1.10162,0.4513 1.14542,0.84662 -0.74693,-0.74672 -1.75564,-0.86144 -2.83864,-0.79681 -0.5668,0.13578 -1.14563,0.42152 -1.54383,0.84661 0.69212,1.01806 1.47852,1.99706 1.39442,3.33665 0.007,0.31451 -0.36474,0.82606 -0.1494,0.24901 0.26028,-1.3661 -0.65002,-2.41865 -1.39442,-3.43626 -0.2079,-0.28484 -0.67811,-0.65141 -0.69721,-0.89641 0.38503,0.46939 0.48469,-0.16367 0.64741,-0.14941 -0.24499,0.27756 -0.0165,0.91444 0.249,0.34861 0.0568,-0.24185 0.0807,-0.88109 0.29881,-0.79681 -0.0295,0.22475 -0.39855,0.79081 0,0.79681 0.4685,-0.18063 0.37959,-0.61399 0.5478,-0.99602 z m -33.36653,0.19921 c 0.20576,0.1393 -0.21483,0.60329 -0.1992,0.89641 -0.31225,1.05852 -0.40423,2.20827 -0.54781,3.33665 -0.11078,0.68168 -0.1374,1.31603 -0.1992,0.94622 0.0859,-0.9616 0.16431,-1.92633 0.249,-2.88845 0.21653,-0.54223 0.22697,-1.35477 -0.44821,-1.59362 -0.45367,-0.17971 -0.98071,0.24236 -0.69721,-0.0996 0.45578,-0.20517 1.16637,-0.16043 1.34462,0.3984 0.30326,-0.10961 0.35104,-0.71625 0.49801,-0.99601 z m 40.53785,9.41237 c 0.94698,0.79071 1.39807,1.89278 1.84263,2.93825 0.2101,0.38694 0.26453,0.91629 0.49801,1.24502 0.22214,-0.27989 0.0407,-0.84932 0.0996,-1.24502 -0.12543,-0.9699 -0.22289,-1.95138 -0.54781,-2.83865 -0.46878,-1.51655 -1.02547,-2.99668 -2.29084,-4.18327 -0.31748,-0.24278 -1.04382,-0.61549 -0.99602,0.0996 -0.25507,0.64893 -1.05421,1.07249 -0.89641,1.89244 0.0763,1.13278 -0.23666,2.23868 -1.24502,2.78884 -0.52219,0.17435 1.28069,0.97179 0.66617,0.88416 -0.6965,-0.0676 -0.1542,-1.1371 -2.3594,-0.13715 -0.57348,0.17749 0.19293,-0.2589 0.39841,-0.3486 0.84404,-0.37671 1.91854,-0.90942 2.24103,-1.89243 0.24894,-0.92277 -0.19471,-2.13241 0.69722,-2.78885 0.64904,-0.73392 0.44951,-1.98215 0,-2.73904 -0.25189,-0.24681 -0.6424,-0.91035 -0.0996,-0.34861 0.42323,0.60157 0.75311,1.24182 0.69721,2.04183 0.59088,0.26893 1.23855,0.48151 1.64342,1.09562 0.19851,0.53696 0.56952,0.26269 0.24901,-0.1494 -0.60829,-1.77653 -1.49368,-3.43827 -2.78885,-4.93028 -1.14728,-1.15584 -2.41048,-2.03187 -3.78486,-2.63944 -0.37695,-0.15141 -0.79267,-0.2092 -1.19522,-0.29881 0.43321,0.0234 0.44561,-0.28921 0.34861,-0.64741 0.0196,-0.3802 -0.1809,-0.85688 -0.0996,-1.14542 0.2251,0.47112 0.13888,1.19641 0.2988,1.74303 1.51344,0.37266 2.87204,1.11912 4.03387,2.34064 0.38882,-0.14387 -0.25501,-0.58482 -0.29881,-0.84661 -1.18337,-1.66476 -2.58263,-3.28369 -4.18326,-4.73108 -1.2861,-1.1373 -2.39736,-1.98823 -3.80024,-2.8436 -1.21383,-0.71984 -2.64696,-1.29912 -3.83466,-1.69322 0,0 -1.78562,-0.67306 -2.70701,-0.91409 -1.00232,-0.2622 -2.02424,-0.46569 -3.05451,-0.57499 -1.30452,-0.13838 -3.02331,-0.26565 -3.93426,-0.0996 -0.91095,0.16606 0.48103,0.32641 0.69721,0.44821 0.47033,0.33343 0.51067,0.0401 0.89641,0.3486 0.51565,0.19586 0.33103,0.16799 0.49801,0.24901 0.28061,0.13616 0.63953,0.29793 0.84662,0.39841 0.20709,0.10048 0.27279,0.12004 0.3984,0.1992 0.16013,0.10092 0.26004,0.32819 0.44821,0.3486 0.42052,0.0456 1.00086,-0.30096 1.37905,-0.40171 0.49103,-0.36259 1.031,-0.5091 1.59362,-0.69886 -0.22548,0.31675 -0.81112,0.36086 -1.14542,0.64741 -0.63627,0.21091 -1.2639,1.07895 -0.54781,1.54383 0.55055,0.43961 -0.1289,0.25764 -0.48263,0.005 -1.12185,-0.567 -2.53081,-0.44081 -3.88446,-0.44821 -0.91763,0.13178 -1.84161,0.40864 -2.44024,1.19522 -0.13693,0.38434 -0.41044,0.62018 -0.84661,0.59761 -1.45746,0.58392 -2.76872,1.52081 -3.98407,2.68925 -0.79135,0.96438 -1.54072,1.94617 -1.54382,3.23705 -0.0974,0.7107 -0.024,1.49213 -0.1494,2.19123 -0.0385,0.46439 -0.20946,1.24063 0.2988,1.44423 0.15572,-0.331 -0.19102,-0.81987 -0.0498,-1.09562 0.22206,0.51117 0.0998,1.36662 0.64741,1.74303 0.12035,-0.45479 0.15025,-0.19252 0.29881,0.1992 0.096,0.34535 0.53532,0.70351 0.5478,0.1992 0.11142,0.38152 0.13322,0.92868 0.39841,1.29482 0.001,1.13857 -0.41731,2.10326 -0.54781,3.18725 -0.27896,1.12006 -0.28362,2.51593 0,3.63546 0.3435,1.14256 -0.49504,-0.32219 -0.44821,-0.498 0.0952,-0.64214 -0.0503,-1.25495 0.0498,-1.89243 0.0607,-1.15298 0.38661,-2.19613 0.59761,-3.28686 0.18159,-0.61218 0.25334,-1.33275 -0.2988,-1.79283 -0.56703,-0.67958 -1.24337,-1.60694 -2.19124,-1.59362 -0.98243,0.71404 -1.74889,1.75827 -2.44024,2.68924 -0.79223,1.27658 -1.35589,2.64784 -1.64342,4.13347 -0.42708,3.93685 -0.94227,1.68556 -0.49801,1.79283 0.0714,-0.54437 0.21625,-1.11537 0.0498,-1.64343 -0.12781,-0.61995 -0.16172,-1.47325 0,-2.04183 0.0832,0.45968 -0.0953,1.20709 0.0498,1.74303 0.21485,0.43252 0.23423,-0.38703 0.3486,-0.54781 0.21536,-1.16859 0.74653,-2.20637 1.29482,-3.23706 0.11082,-1.20265 0.47466,-2.30051 0.74702,-3.43625 0.10402,-0.57573 0.2895,-0.20354 0.0498,0.1494 -0.18945,0.88386 -0.47041,1.72981 -0.59761,2.63944 0.40881,0.0677 0.54341,-0.63134 0.89641,-0.84661 0.40363,-0.56595 1.0106,-1.05923 1.39442,-1.59363 0.11033,-0.54557 0.007,-1.23098 0.0498,-1.74302 0.16239,0.53207 0.15542,1.15716 0.0498,1.69322 0.47651,0.10822 0.56305,-0.6416 0.64741,-0.99601 0.29034,-1.20325 -0.0238,-2.65689 0.44821,-3.78486 0.54526,-1.51799 1.9612,-2.84709 3.33665,-3.73506 0.8127,-0.52038 1.64241,-0.99967 2.58965,-1.19522 0.2202,-0.66649 0.85587,-1.16096 1.49402,-1.39442 0.90125,-0.32151 1.90288,-0.40071 2.93825,-0.39841 0.4187,0.081 0.87654,0.0674 1.29482,0.1494 0.0894,-0.31442 -0.53479,-0.4382 -0.74701,-0.64741 -1.17057,-0.70124 -2.43508,-1.17566 -3.78487,-1.44422 -1.08503,-0.20258 -2.25517,-0.0701 -3.28685,0.1494 -1.22496,0.27681 -2.42427,0.61554 -3.58566,1.04582 -1.37305,0.5055 -2.72212,1.06889 -3.98406,1.84263 -1.50344,0.8559 -2.89593,1.97965 -4.23307,3.23705 -1.53459,1.33742 -2.707,2.94499 -3.63546,4.58167 -1.18862,1.40176 -0.28611,1.58526 -0.89641,1.94223 -0.6103,0.35698 -0.99725,1.68011 -1.29482,2.58964 -0.21189,0.70453 -0.42986,1.40654 -0.44821,2.19124 0.3393,0.11914 0.24669,-0.55268 0.44821,-0.74701 0.22156,-0.50968 0.43668,-0.6254 0.31005,-0.26693 -0.12663,0.35847 -0.35021,0.89192 -0.55905,1.26296 -0.0965,0.60756 -0.42749,1.29204 -0.0996,1.89241 0.28479,-0.13111 0.21319,-0.64893 0.4482,-0.8964 -0.0128,-0.39262 0.45909,-0.74446 0.14941,-0.1992 -0.20399,0.62135 -0.56938,1.28343 -0.39841,1.99202 0.31213,0.11177 0.22712,-0.54602 0.39841,-0.74701 0.0714,-0.18395 0.47328,-0.96639 0.2988,-0.4482 -0.17821,0.59523 -0.6736,1.27482 -0.3486,1.94222 0.38191,0.41681 0.48573,-0.0996 0.5478,-0.3984 0.089,-0.27787 0.11241,-0.72606 0.34861,-0.84662 -0.0586,0.48441 -0.11127,1.50213 -0.69721,1.54383 -0.47468,-0.12552 -0.45248,0.68097 -0.59761,0.99601 -0.1043,0.75352 -0.23673,1.60548 -0.0996,2.39044 0.2971,-0.12291 0.12072,-0.67862 0.2988,-0.94621 0.0564,-0.33927 0.15728,-0.94082 0.39841,-0.99602 -0.3704,0.93483 -0.54341,1.95143 -0.54781,3.03786 0.0449,0.19228 0.21667,0.97681 0.34861,0.4482 0.12665,-0.50236 0.25492,-1.07992 0.59761,-1.44422 0.004,0.28081 -0.36968,0.71073 -0.39841,1.09562 -0.24475,0.5875 -0.20088,1.34839 0.1992,1.84263 0.10688,0.94674 0.53548,1.76022 1.04582,2.53984 0.27973,0.0824 -0.0206,-0.92492 0.1992,-0.44821 -0.009,0.61475 0.1739,1.14972 0.69721,1.54383 0.48273,0.45619 0.0482,-0.90984 0.34861,-0.34861 -0.073,0.5342 0.17232,0.94392 0.64741,1.14542 0.27783,0.30824 0.71596,0.30059 0.49801,-0.1992 -0.1025,-0.60972 0.1862,0.0898 0.1992,0.3486 0.1797,0.48751 0.49085,1.06846 0.94622,1.34462 0.0662,-0.59575 0.13987,0.092 0.249,0.34861 0.3247,0.54884 0.61506,0.1122 0.29881,-0.249 0.10248,-0.41518 0.21,0.39607 0.2988,0.5478 0.0222,0.33815 0.37882,0.87581 0.74701,0.74702 -0.0279,-0.19692 -0.32952,-0.83202 -0.0996,-0.74702 0.11525,0.4642 0.19316,1.16693 0.79682,1.24503 0.12401,-0.2019 -0.34524,-0.95634 0.0498,-0.44821 0.061,0.35167 0.76514,1.05802 0.4482,1.14542 0.47214,0.78291 1.31029,1.44905 2.04184,1.94223 0.26572,-0.30197 -0.44828,-0.67987 -0.59761,-0.99602 0.0786,-0.28794 0.51246,0.45944 0.69721,0.64741 0.25422,0.37154 0.64376,0.90847 1.14542,0.69721 -0.24728,-0.66078 0.20246,0.20018 0.5478,0.0996 0.80509,-0.29387 -0.23882,-0.40683 -0.3486,-0.69721 0.44821,0.14941 0.11076,-0.45294 0.44821,0.14941 0.23246,0.31716 0.68366,0.64541 1.04581,0.59761 -0.004,-0.21289 -0.57999,-0.94387 -0.1494,-0.54781 0.30188,0.46563 0.73891,1.12365 1.34462,0.99601 -0.055,-0.34697 -0.72594,-0.63316 -0.69721,-0.89641 0.68116,0.51044 1.21454,1.37762 2.14144,1.29482 0.28979,0.0571 0.8373,0.13777 1.04581,-0.0498 -0.0779,-0.1734 -0.97174,-0.51807 -0.4482,-0.39841 0.45932,0.14885 0.92967,0.54865 1.44422,0.39841 -0.24031,-0.33751 -0.47392,-0.38386 0.0996,-0.24901 0.57472,0.35724 1.18089,-0.21022 1.74303,-0.3486 0.51716,-0.29926 1.28902,-0.56981 1.29482,-1.29482 0.0387,-0.39425 0.1541,-0.69128 0.1494,-0.0996 -0.19452,0.57528 0.45427,0.0539 0.64741,-0.0996 0.12666,-0.39753 -0.55656,-0.60956 -0.84661,-0.79681 -0.35601,-0.52665 -0.48073,-1.9e-4 -0.34861,0.34861 -0.032,0.58003 0.14839,0.25069 -0.1992,-0.49801 0.0884,-0.28038 -0.59899,-0.86386 -0.49801,-0.39841 0.13152,0.51139 0.18396,1.21188 -0.0498,1.69323 0.007,-0.51539 0.16584,-1.27427 -0.0996,-1.79283 -0.0461,-0.32387 -0.47761,-0.77951 -0.79681,-0.69721 0.31705,0.71001 0.2541,1.74754 0.249,1.49402 -0.0442,-1.03626 -0.49961,-1.90218 -1.14542,-2.68924 -0.83131,-0.88261 -1.34251,-1.89782 -1.79283,-2.93825 -0.44928,0.12552 -0.66085,0.12583 -0.1494,-0.1494 0.18478,-0.4978 -0.52722,-0.23911 -0.69721,-0.0498 -0.29857,0.19004 -0.85388,0.38508 -0.29881,0.0498 0.52418,-0.15064 0.2792,-0.44121 -0.1494,-0.44821 -0.16834,-0.16038 -0.81765,0.55266 -0.59761,0.14941 0.57628,-0.20145 -0.12153,-0.6745 -0.3984,-0.39841 -0.671,0.40367 0.34471,-0.24172 -0.19921,-0.39841 -0.50541,-0.19389 -0.79894,-0.89931 -1.34462,-0.99601 -0.65865,0.2551 0.21062,-0.11463 -0.1494,-0.39841 -0.24323,-0.3114 -0.45939,-0.68771 -0.84661,-0.3486 -0.50073,0.37711 -0.47378,0.10772 0,-0.14941 0.54617,0.046 0.26891,-0.6866 -0.0996,-0.54781 -0.2488,-0.0491 -0.86214,0.52048 -0.74702,0.24901 0.1444,-0.1911 0.894,-0.38441 0.29881,-0.59761 -0.46643,-0.45482 -0.94733,0.2277 -1.44422,0.2988 0.0905,-0.354 0.81055,-0.27072 0.84661,-0.64741 -0.28957,-0.29187 -0.62144,-0.35261 -0.94622,-0.0996 0.0736,-0.1354 0.44207,-0.4734 -0.1494,-0.59761 -0.59273,0.29126 -0.33845,0.21228 -0.249,-0.1992 -0.29066,-0.54591 -0.82918,0.46369 -0.89642,0.1992 0.21138,-0.2576 0.79896,-0.53971 0.19921,-0.79681 -0.37947,-0.077 -0.70476,0.41612 -1.04582,0.59761 -0.0432,-0.41581 1.18487,-0.56791 0.54781,-1.04582 -0.46537,-0.66067 -0.93585,0.51381 -1.29482,0.44821 0.14501,-0.36235 0.87523,-0.55646 0.79681,-0.94623 -0.39963,-0.21845 -0.51249,-1.00768 -0.99602,-0.84661 -0.28334,0.39758 -0.79055,0.64137 -0.249,0.0996 0.64698,-0.37374 -0.0686,-0.8496 -0.249,-1.24502 -0.2634,-0.70473 -1.09911,-0.3691 -1.64343,-0.2988 -0.79582,0.18471 -1.72233,0.9226 -1.54382,0.69721 0.65024,-0.68556 1.52411,-0.92742 2.44023,-0.99602 0.74421,0.21367 -0.10904,-0.54874 -0.1494,-0.84661 -0.23482,-0.30638 -0.32845,-0.82058 -0.64741,-0.99602 -0.32074,0.18158 -0.0302,-0.54752 -0.249,-0.74701 -0.42618,-0.67479 -0.55539,-1.4726 -0.99602,-2.14142 -0.27355,-0.43014 -0.84725,-0.3219 -1.09562,-0.69721 0.36288,0.0879 0.72947,0.43412 1.09562,0.3486 -0.18418,-0.89156 0.0859,-1.76564 0.34861,-2.53984 0.19309,0.12785 -0.18409,0.6023 -0.14941,0.89641 -0.27129,0.97192 0.006,2.03029 0.44821,2.83865 0.16055,0.32442 0.23737,0.82969 0.54781,0.99602 0.15617,-0.17701 -0.21996,-0.84298 0.0498,-0.74702 0.10193,0.61416 0.14453,1.21726 0.34861,1.74302 0.17966,0.49911 0.42439,0.32086 0.2988,-0.1494 -0.13906,-0.46913 0.07,-0.5676 0.0996,-0.0498 0.0597,0.56621 0.0184,1.31827 0.54781,1.59363 0.0557,-0.48952 -0.0373,-1.09309 0,-1.64343 0.22614,0.20546 0.0378,0.82541 0.0996,1.19522 0.0779,0.69315 0.1883,1.44699 0.74701,1.89243 0.24792,-0.26412 -0.0468,-0.75954 0.0498,-1.14542 -0.14446,-0.84089 0.018,-1.73256 0,-2.58963 -0.18283,-0.52312 -0.40147,-1.14106 -0.3486,-1.69323 0.2271,0.36694 0.0254,1.05491 0.4482,1.24502 0.1961,-0.48127 0.1205,-0.93521 0.0498,-1.44422 l 0.19921,-0.0996 c 0.28193,-0.73623 0.35967,-1.55703 0.64741,-2.29084 0.31377,-1.07803 0.86277,-2.05862 1.29482,-3.08765 -0.25079,-0.84872 0.18702,-1.98267 -0.64741,-2.58964 -0.67167,-0.62108 -1.7866,-0.33452 -2.49004,0 -0.48119,-0.0361 0.91289,-0.35249 1.29482,-0.64741 0.13532,-0.62043 0.0663,-0.15868 0.19921,0.0996 0.47266,0.14982 0.57764,-0.28322 0.84661,-0.49801 -0.10418,0.19805 -0.44602,0.82543 0.1494,0.64741 0.15811,-0.42343 0.70107,-0.64859 0.19921,-0.0996 -0.32869,0.49208 0.45857,0.46076 0.49801,0 0.53216,-0.57906 0.31174,-0.0467 -0.0498,0.249 -0.43157,0.39498 0.0171,0.69245 0.249,0.14941 0.3519,-0.5549 0.39753,-0.22395 0.0498,0.1494 -0.55697,0.40018 -0.0679,1.00911 -0.1992,1.59362 -0.19776,0.37129 0.0975,0.79105 0.2988,0.24901 0.67064,-1.40661 1.36155,-2.80482 2.34064,-4.08367 0.17109,-0.58045 0.3874,-1.21888 0.69721,-1.69322 0.0979,0.25107 -0.40469,0.67132 -0.249,0.99601 0.61332,-0.46706 1.1018,-1.24012 1.74302,-1.79283 0.85314,-0.81259 1.81262,-1.36846 2.88845,-1.64342 -0.0717,0.24669 -0.67662,0.21498 -0.89641,0.498 -1.49026,0.74417 -2.70512,2.22561 -3.78487,3.53586 -1.04038,1.36396 -1.83197,2.83098 -2.53984,4.33267 -0.63478,1.23247 -1.26715,2.46594 -1.69322,3.78486 -0.39823,1.25364 -0.67575,2.55728 -0.89642,3.88446 -0.16016,0.89765 -0.22662,1.83412 -0.249,2.78884 0.10038,0.55033 0.0729,1.15363 0.1992,1.69323 0.15258,0.41895 0.57461,0.51294 0.44821,-0.0498 -0.073,-0.4537 0.15955,-0.56758 0.0996,-0.0498 -0.0233,0.54839 0.14864,1.15928 0.64741,1.39443 0.0745,-0.30376 -0.2451,-0.81094 -0.0996,-1.09562 0.10941,0.39238 0.20471,0.91801 0.3486,1.34462 0.28737,0.5619 0.45047,-0.0562 0.24901,-0.3486 -0.0532,-0.15988 -0.1893,-0.91876 0,-0.64742 0.0298,0.54352 0.22877,1.01698 0.2988,1.54384 0.85538,0.72015 1.76296,1.31429 2.73905,1.74303 0.0515,-0.55487 -0.34551,-1.10054 -0.24901,-1.74303 -0.0848,-0.72647 0.12586,-1.50358 0.29881,-2.19125 0.48256,-1.25711 0.98911,-2.50429 1.29482,-3.83466 0.25362,-0.8326 0.38371,-0.58286 0.0996,0.49801 -0.35399,1.14722 -0.76341,2.27147 -1.19522,3.38645 -0.25743,0.8248 -0.38859,1.72878 -0.2988,2.63946 0.15348,1.59939 1.29345,2.90078 2.58964,3.93426 0.7829,0.54748 1.71357,0.94321 2.73904,0.74701 0.77221,-0.0215 1.30343,-0.80942 1.54383,-1.39442 0.0163,0.37816 -0.26954,0.94297 -0.59761,1.29482 0.21209,0.35869 0.67532,-0.25568 0.84661,-0.1494 -0.30241,0.3426 -0.86609,0.4604 -1.34462,0.3486 -0.39651,0.07 -0.70387,0.35832 -0.1494,0.54781 0.34078,0.30476 0.94529,0.0389 1.24502,0.0996 -0.41253,0.28831 -1.11578,0.13093 -1.54383,-0.0996 -0.27578,0.28152 0.41738,0.66091 0.69721,0.69721 0.13895,0.12601 0.97422,0.17441 0.44821,0.24901 -0.28521,0.0259 -0.77006,-0.45709 -0.89642,-0.0996 0.57291,1.01611 1.69762,1.44371 2.78885,1.54382 1.1958,0.24361 2.26516,-0.2535 3.03785,-1.19522 0.7126,-0.86422 1.50097,-1.84475 2.53984,-2.19123 0.96977,-0.44636 2.06671,-0.58571 3.23705,-0.54781 0.82227,-0.10455 1.7004,-0.0743 2.39044,-0.49801 0.78383,-0.44905 0.78363,-1.45184 1.09562,-2.19124 0.27561,-0.85284 0.51383,-1.96719 1.49402,-2.34064 0.27148,-0.1424 0.88347,-0.29896 1.04582,-0.1494 -0.9718,0.0517 -1.90359,0.83285 -2.09163,1.79283 -0.39672,1.01332 -0.54773,2.12841 -1.19522,3.03785 -0.17882,1.29047 1.13975,2.09706 2.09163,2.53984 1.13249,0.39357 2.24024,0.84687 3.53586,0.84662 0.41436,0.15458 1.0132,-0.121 1.34462,-0.0498 -0.55391,0.2731 -1.38376,0.1806 -2.09164,0.1992 -1.20598,-0.21898 -2.35315,-0.57995 -3.43625,-1.09562 -0.83856,-0.4559 -1.70213,-1.2546 -1.64343,-2.29084 -0.40859,-0.0999 -0.78307,0.31121 -1.24502,0.24901 -0.75714,0.1454 -1.57683,0.1404 -2.39044,0.1494 -1.01111,0.17532 -2.04271,0.30119 -2.83864,0.99602 -1.16794,0.68908 -1.73786,2.34463 -3.08765,2.73904 -0.91434,0.45459 -2.08464,0.19544 -2.98805,-0.0996 -0.19553,-0.0513 -0.93078,-0.48925 -0.64741,0 1.09586,1.18158 2.47168,1.68723 4.03386,1.74303 1.04286,0.15131 2.12356,-0.0358 3.18726,0 0.8453,0.11533 1.59723,0.45611 2.39044,0.69721 0.53275,0.17437 1.19062,0.19993 1.74302,0.0498 -0.23317,0.3132 -0.90239,0.1578 -1.34462,0.1992 -1.16217,-0.20855 -2.1491,-0.84021 -3.43625,-0.74701 -0.6994,0.068 -1.45396,0.003 -2.14144,0.0996 0.0129,0.20847 0.92761,0.59825 0.34861,0.39841 -0.49277,-0.19527 -0.8804,-0.64431 -1.49403,-0.54781 -0.63973,-0.12098 -1.25571,-0.29931 -1.84263,-0.54781 -0.0927,0.36356 0.55709,0.48961 0.74702,0.79681 1.18649,0.81504 2.34851,1.68914 3.68526,2.14144 1.08472,0.46195 2.25858,0.70868 3.43625,0.94621 0.42676,0.0306 0.90007,0.20641 1.29482,0.14941 l 1.19522,1e-5 c 0.37833,0 0.8377,0.1522 1.24502,0.1992 1.4311,0.0399 2.77637,-0.12737 3.93426,-0.74701 1.52132,-0.63299 2.86466,-2.1334 3.58566,-3.58566 0.62126,-1.15841 0.90102,-2.45828 0.99602,-3.83466 0.0665,-0.73972 0.1202,-1.50065 0.0498,-2.24104 0.0416,-1.24682 -0.18021,-2.38457 -0.24901,-3.58565 -0.22067,-1.02034 -0.3443,-2.08086 -0.59761,-3.08767 -0.32425,-1.31866 -0.71022,-2.61175 -1.14542,-3.88445 -0.17715,-0.47679 -0.35389,-0.95374 -0.498,-1.44422 0.3476,0.34772 0.38596,1.09227 0.84661,1.34462 0.34767,-0.52789 0.29477,-0.13392 0.0498,0.1992 -0.16001,0.42212 0.27589,0.67208 0.39841,0.14941 0.33087,-0.54548 0.0339,0.2408 -0.0996,0.4482 -0.17267,0.69593 0.3416,1.27366 0.3984,1.94223 0.39878,0.0946 0.40794,-0.60982 0.74702,-0.79682 0.80854,-0.99424 2.18135,-1.56414 2.63944,-2.78883 0.49041,-0.80109 0.28766,-1.88483 -0.0498,-2.68924 -0.1387,-0.5769 -0.57647,-1.02992 -0.74701,-1.59363 0.35024,0.17992 0.4171,0.8776 0.79681,1.04582 0.1883,-0.5084 0.42506,-0.39209 0.0996,0.0498 -0.20362,0.56087 0.25901,0.32954 0.34861,0 0.11338,0.25225 -0.4481,0.61774 -0.1494,0.94621 0.16945,0.64225 0.4261,-0.27854 0.498,-0.4482 0.15522,0.39671 -0.58993,1.01709 -0.1992,1.44422 0.15814,-0.122 0.51481,-0.90314 0.34861,-0.29881 -0.30393,0.54166 -0.6052,1.08442 -0.74702,1.69323 -0.41911,1.04832 -1.48424,1.64569 -2.29083,2.44023 -0.45041,0.47931 -0.93156,0.9459 -1.09562,1.54382 0.20888,1.07501 0.50971,2.11192 0.59761,3.23706 0.18632,0.8107 0.2304,1.68033 0.2988,2.53985 0.0999,0.90199 0.1108,1.84082 0.0996,2.78884 0.47071,-0.1137 0.55149,-0.0775 0.0498,0.249 -0.18981,0.16856 -0.17732,1.12046 0.19921,0.64742 0.51973,-0.47485 0.38765,-0.003 -0.0498,0.1992 -0.48271,0.24952 -0.31481,0.83804 -0.39841,1.29482 1.21045,-0.11294 -0.0641,-0.25219 -0.1992,0.84661 -0.0496,0.20791 -0.42013,0.86991 0.0498,0.69721 0.45898,-0.40273 0.9054,-0.8358 1.44422,-1.04581 -0.35918,0.41059 -1.02008,0.70721 -1.44422,1.19522 -0.45113,0.23168 -0.80862,0.80054 -0.79682,1.24502 0.55683,-0.0681 0.27935,0.0791 -0.3486,0.3984 -0.0947,0.33059 -0.57331,0.61426 -0.49801,0.94622 0.86904,-0.33741 1.65248,-0.88143 2.49004,-1.29482 0.0123,0.28133 -0.56433,0.35434 -0.79681,0.54781 -0.69594,0.46502 -1.47103,0.73898 -2.19124,1.14541 -0.44457,0.60679 -1.18698,0.98637 -1.69322,1.44423 0.14497,0.17972 0.78881,0.16925 0.79681,-0.0996 0.65971,-0.0976 -0.41671,0.48162 0.64741,0.1992 1.06412,-0.28242 0.23129,0.24839 1.49402,-0.0996 0.68705,-0.0594 1.28318,-0.33832 1.74303,-0.94622 0.26321,-0.2644 0.92303,-0.72996 0.34861,-0.1494 -0.55994,0.38223 -0.0852,0.5803 0.249,0.1992 0.43782,-0.30811 0.84497,-0.80543 1.24502,-1.09561 0.005,0.33999 -0.84802,0.62108 -0.54781,0.89641 1.02301,-0.42338 2.03869,-1.04806 2.83865,-1.89243 -0.29713,-0.22626 -0.78826,0.1959 -1.19522,0.1494 -0.39861,0.0299 -0.92637,0.18821 -1.19522,0.24901 0.49388,-0.3907 1.27855,-0.37966 1.89243,-0.59761 0.83309,-0.17548 1.71685,-0.55455 2.14143,-1.39443 0.56612,-0.81437 1.21222,-1.59561 1.34462,-2.58964 0.0446,-0.30523 -0.08,-0.95171 -0.3984,-0.54781 -0.37303,0.46289 -1.01072,0.47632 -1.39442,0.79682 0.004,1.26263 -1.2216,2.10971 -2.34064,2.29083 -0.61396,0.20376 -1.31882,0.0893 -1.99203,0.0498 -0.34743,-0.038 -0.734,-0.25747 -0.14941,-0.1494 1.31739,0.16264 2.6806,0.0279 3.63546,-0.84661 0.42589,-0.31192 0.86706,-0.85575 0.69721,-1.39442 -0.95258,0.21697 -2.00672,0.0592 -2.88844,-0.19921 0.0398,-0.20924 0.55578,0.1478 0.84661,0.0498 1.0443,0.12803 2.20068,0.0887 3.03785,-0.4482 0.89769,-0.5714 1.46681,-1.50066 1.34462,-2.58964 0.22699,0.179 0.0538,0.781 0.0498,1.09561 -0.10211,0.39167 -0.3332,0.72992 -0.49801,1.09562 0.18515,0.15739 0.0686,0.99129 0.39841,0.54781 0.59318,-0.99431 0.9039,-2.10562 1.04582,-3.28685 0.18356,-1.17467 0.16512,-2.53177 -0.24901,-3.58567 -0.38079,-1.18828 -0.9501,-2.29846 -1.69323,-3.33665 -0.51437,-0.4573 -0.43231,0.54148 -0.64741,0.79681 -0.1377,0.45076 -0.53134,0.55663 -0.1494,0.0498 0.40821,-0.37717 0.34642,-4.46604 0.49801,-1.24502 m -13.44622,-3.13743 c -0.0287,0.4235 0.0324,0.92339 0.39841,1.24502 0.37287,0.28925 0.73568,0.8839 1.19522,0.7968 0.29752,-0.56793 -0.088,0.53104 0.4482,0.249 0.24601,-0.38724 0.71567,-0.64485 0.24901,-0.0996 -0.44803,0.35351 0.39122,0.56366 0.5478,0.19921 -0.01,0.0561 -0.24875,0.56903 0.29881,0.79681 0.2924,0.39015 0.56043,0.79041 0.69721,1.24502 -0.34414,-0.33885 -0.54839,-0.97391 -1.04582,-1.34462 -0.84457,-0.74486 -2.05675,-0.91239 -2.68924,-1.94222 -0.137,-0.33263 -0.32563,-0.78986 -0.0996,-1.14542 z m -13.64542,6.07569 c 1.10134,0.0117 2.17663,0.37854 2.78885,1.34462 0.4104,0.81179 0.43749,1.78234 0.498,2.73905 0.11482,0.69327 0.2176,1.39152 0.79682,1.89243 -0.41456,-0.0133 -0.571,-0.6705 -0.74702,-0.99601 -0.33503,-0.92601 -0.23236,-2.03331 -0.498,-2.98805 -0.30145,-1.07124 -1.40893,-1.76824 -2.49004,-1.79284 -1.5106,-0.0407 -2.5378,1.08563 -3.63546,2.04184 -0.53726,0.53479 -1.07121,1.06168 -1.59363,1.54383 -0.13323,-0.14718 0.44381,-0.60573 0.64741,-0.84662 1.08125,-1.20287 2.30178,-2.36799 3.73506,-2.83865 0.16457,-0.0328 0.3508,-0.0236 0.49801,-0.0996 z m -16.23506,4.93029 c 0.052,-0.44884 -0.29921,-0.90655 -0.1992,-1.44423 0.0198,-0.8436 0.54087,-1.4796 0.39841,-2.39045 0.0979,-0.64995 0.0406,0.58915 0.2988,0.14941 0.17125,-0.28118 0.27859,-0.60254 0.29881,-0.94622 h -1e-5 c 0.25356,0.16505 -0.11729,0.66639 -0.1494,0.94622 -0.36726,0.86689 -0.72188,1.739 -0.64741,2.78885 0.25353,1.05019 0.89033,2.00503 1.79283,2.73904 0.25135,0.0773 0.75394,0.5719 0.89641,0.19921 -0.50461,-0.46256 -0.70951,-1.04927 -0.89641,-1.64343 0.29779,0.19299 0.25035,0.77724 0.59761,1.04582 0.66084,0.9868 1.82582,1.05021 2.73904,1.54382 0.93288,0.42374 1.91976,0.71709 2.78885,1.29482 0.83601,0.60868 0.27341,1.79668 1.14542,2.39044 0.99532,0.62108 2.10541,0.96512 3.38645,0.89642 0.42424,-0.0106 -0.33025,0.1831 -0.54781,0.0996 -1.14385,0.0581 -2.09752,-0.34295 -2.98805,-0.89642 -0.63828,-0.39798 -0.55524,-1.21179 -0.74701,-1.84263 -0.52486,-0.88406 -1.57434,-1.0361 -2.39044,-1.44422 -0.79929,-0.29282 -1.54278,-0.72036 -2.39044,-0.89641 -1.09419,-0.0869 -2.10895,-0.66394 -2.73904,-1.64343 -0.19873,-0.45678 -0.54469,-0.70118 -0.99602,-0.84661 m 43.92431,-4.18328 c 0.2898,0.29576 0.1813,0.87913 0.2988,1.29483 0.34932,-0.13043 0.20991,-0.7806 0.34861,-1.04583 0.11655,0.43784 -0.0918,1.05235 -0.249,1.49404 -0.39382,0.77503 -0.73437,1.82729 -1.69323,2.14143 -0.27687,0.20976 -0.85187,0.0488 -0.99602,0.34861 0.1016,0.14905 0.3836,0.93546 0.0996,0.64741 -0.0398,-0.41619 -0.20255,-0.89522 -0.69721,-0.84662 -0.70295,-0.2658 -1.51626,-0.49459 -2.29083,-0.2988 0.0206,-0.30501 0.64782,-0.0546 0.84661,-0.1992 0.79543,0.0394 1.44834,0.4228 2.29084,0.3486 0.8914,-0.13584 1.72891,-0.87095 1.99203,-1.74303 0.30641,-0.64328 0.20537,-1.46454 0.0498,-2.14144 z m -11.74432,3.62409 c 2.75527,-0.37706 0.13452,0.0539 -0.0219,0.41197 -0.22287,0.96291 -0.0456,1.66117 0.76022,2.18905 0.60568,0.40275 1.4578,0.50555 2.19124,0.2988 -0.26946,0.30857 -1.04304,0.20551 -1.49403,0.14941 -0.84692,-0.11662 -1.61152,-0.82063 -1.69322,-1.69323 -0.23526,-0.87161 0.0356,-1.80901 0.4482,-2.53984 0.32434,-0.56801 0.53181,-1.16776 0.59761,-1.84264 0.16964,0.7526 -0.65357,2.45603 -0.65357,2.45603 m 7.32688,-2.30662 c 0.75366,-0.0245 1.57503,-0.032 2.09163,0.39841 -0.30496,0.003 -0.7871,-0.2875 -1.24502,-0.1992 -0.66489,-0.11905 -1.35926,0.12479 -1.99203,0.249 -0.33217,0.082 -0.77847,0.3452 -1.04581,0.2988 0.63665,-0.32691 1.453,-0.5523 2.19123,-0.74701 z m -23.95418,0.94622 c 0.94873,-0.12697 1.54089,0.80372 1.64342,1.59362 0.19055,0.94703 -0.17756,1.9981 0.14941,2.88845 0.2616,0.56233 0.16579,1.4439 -0.54781,1.59362 -0.55932,0.10771 0.36123,-0.20425 0.3984,-0.498 0.30693,-0.73697 -0.30393,-1.40468 -0.1992,-2.19124 -0.0772,-0.30621 -0.43718,-0.68924 -0.34861,-0.94621 0.072,0.1817 0.41038,0.82991 0.39841,0.1992 0.0694,-1.01263 -0.0928,-2.15722 -1.09562,-2.53984 -0.1826,-0.0523 -0.86426,0.15905 -0.3984,-0.0996 z m 8.16733,6.97211 c 1.37309,-0.1043 2.56091,0.23869 3.53585,1.09562 0.30821,0.0651 0.68163,0.67655 0.94622,0.3984 0.0676,-0.50805 0.27643,-0.40913 0.0996,0.0498 -0.16309,0.30132 0.64341,0.53964 0.54781,0.0498 0.175,-0.59223 0.1918,-0.0936 0.0498,0.24901 0.12738,0.45995 0.61471,0.0474 0.64741,-0.19921 -0.034,0.21615 -0.19938,0.6493 0.34861,0.49801 0.2499,-9.4e-4 0.3948,-0.88359 0.3486,-0.249 -0.22626,0.436 0.48721,0.2853 0.74701,0.3486 0.7298,-0.0845 1.50237,-0.0657 2.19124,-0.249 0.48737,-0.0315 0.9747,-0.31941 1.39442,-0.34861 -0.74501,0.39755 -1.57705,0.58497 -2.44024,0.69722 -0.76773,0.1124 -1.49917,0.0548 -2.29083,0.0498 -1.05746,-0.14646 -2.01472,-0.53479 -2.83865,-1.24502 -0.75366,-0.53981 -1.54169,-0.99662 -2.53984,-0.94622 -0.7641,-0.0825 -1.56056,0.19277 -2.19124,0.59761 -0.41117,0.0983 -0.87196,0.54221 -1.24502,0.44821 0.8295,-0.43297 1.7224,-1.03115 2.68925,-1.24502 z m 8.36653,3.58566 c 0.25802,0.15453 -0.46808,0.38068 -0.64741,0.498 -0.83647,0.39774 -1.82028,0.43981 -2.83864,0.39841 -0.98446,0.10687 -1.78189,0.66531 -2.83865,0.59761 -0.33301,0.20132 -1.37998,-0.0261 -1.54382,-0.0996 -0.7271,-0.13157 -1.47787,-0.3889 -2.04184,-0.79682 0.28174,-0.048 0.67045,0.38761 1.04582,0.39841 0.94373,0.40375 2.15066,0.40048 3.23705,0.29881 0.81086,-0.10862 1.46776,-0.58891 2.34064,-0.54781 0.49612,-0.0691 1.1443,0.0927 1.64343,-0.0996 0.60124,-0.0833 1.15762,-0.2857 1.64342,-0.64741 z"
           sodipodi:nodetypes="ccccccccccccccccccsssscccccczsccsscccccccccsccccccccccccccccscccccccccscccccccccccccccssccccccccccccccccccccccccccccccccccccccccccccccccccccccccccccccccccccccccccccccccccccccccccccccccccccccccccccccccccccccccccccccccccccccccccccccccccccczcaasaaccccccccccccccccccccccccccccccccccccccccccccccccccccczcccccccccccccccccccccccccccccccccccccccccccccccccccccccccccccccccccccccccccccccccccccccccccccccccccccccccccccccccccccccccccccccccccccccccccccccccccccccccccccccccccccccccccccccccccccccccccccccccccccccccccccccccccccccsccccccccccccccccccccccccccccccccccccccccccccccczcccccccccccccccccccccccccccccccccccccccccccccccccccccccccccssccccccccccccccccccccccccccccccccccccccccccccccccccccccccccccccccccccccccccccccccccccccccc" />
        <g
           id="g243"
           style="stroke-width:0.264583;stroke-dasharray:none"
           transform="translate(136.46743,-421.96211)">
          <path
             id="path236"
             style="font-weight:800;font-stretch:normal;font-size:11.2889px;line-height:11.2889px;font-family:Montserrat;-inkscape-font-specification:'Montserrat Ultra-Bold';fill:#b4417e;stroke:#6a2e4f;stroke-width:0.264583;stroke-dasharray:none;stroke-opacity:1"
             d="m 59.641814,248.51105 c -0.63218,0 -1.21543,0.10169 -1.74977,0.30489 -0.53435,0.2032 -1.00052,0.49289 -1.3994,0.86919 -0.39134,0.36877 -0.69642,0.80192 -0.91467,1.29863 -0.21825,0.49673 -0.32711,1.04206 -0.32711,1.6366 0,0.59455 0.10886,1.1404 0.32711,1.6371 0.21825,0.49672 0.52333,0.93319 0.91467,1.30949 0.39888,0.36877 0.86505,0.65463 1.3994,0.85782 0.53434,0.2032 1.11759,0.3049 1.74977,0.3049 0.6397,0 1.22346,-0.1017 1.75028,-0.3049 0.53434,-0.2032 0.99668,-0.48905 1.38803,-0.85782 0.39134,-0.36877 0.69641,-0.8014 0.91467,-1.29812 0.22578,-0.50424 0.33848,-1.05393 0.33848,-1.64847 0,-0.59455 -0.1127,-1.13988 -0.33848,-1.6366 -0.21826,-0.49671 -0.52333,-0.92986 -0.91467,-1.29863 -0.39135,-0.3763 -0.85369,-0.66599 -1.38803,-0.86919 -0.52682,-0.2032 -1.11058,-0.30489 -1.75028,-0.30489 z m 0,1.85156 c 0.30104,0 0.57972,0.0528 0.8356,0.15813 0.26341,0.10537 0.48933,0.25982 0.67748,0.46302 0.19567,0.19568 0.34629,0.43261 0.45165,0.71107 0.1129,0.27093 0.16899,0.57933 0.16899,0.92553 0,0.33866 -0.0561,0.64706 -0.16899,0.92552 -0.10536,0.27846 -0.25598,0.51975 -0.45165,0.72295 -0.18815,0.19568 -0.41407,0.34577 -0.67748,0.45114 -0.25588,0.10536 -0.53456,0.15813 -0.8356,0.15813 -0.30104,0 -0.58306,-0.0528 -0.84646,-0.15813 -0.25589,-0.10537 -0.48181,-0.25546 -0.67748,-0.45114 -0.18815,-0.2032 -0.33825,-0.44449 -0.45114,-0.72295 -0.10536,-0.27846 -0.15813,-0.58686 -0.15813,-0.92552 0,-0.3462 0.0528,-0.6546 0.15813,-0.92553 0.11289,-0.27846 0.26299,-0.51539 0.45114,-0.71107 0.19567,-0.2032 0.42159,-0.35765 0.67748,-0.46302 0.2634,-0.10535 0.54542,-0.15813 0.84646,-0.15813 z" />
          <path
             id="path237"
             style="font-weight:800;font-stretch:normal;font-size:11.2889px;line-height:11.2889px;font-family:Montserrat;-inkscape-font-specification:'Montserrat Ultra-Bold';fill:#b4417e;stroke:#6a2e4f;stroke-width:0.264583;stroke-dasharray:none;stroke-opacity:1"
             d="m 40.992814,248.51105 c -0.632178,0 -1.215423,0.10169 -1.749764,0.30489 -0.534342,0.2032 -1.00104,0.49289 -1.399915,0.86919 -0.391348,0.36877 -0.695904,0.80192 -0.914156,1.29863 -0.218252,0.49673 -0.327628,1.04206 -0.327628,1.6366 0,0.59455 0.109376,1.1404 0.327628,1.6371 0.218252,0.49672 0.522808,0.93319 0.914156,1.30949 0.398875,0.36877 0.865573,0.65463 1.399915,0.85782 0.534341,0.2032 1.117586,0.3049 1.749764,0.3049 0.639704,0 1.222948,-0.1017 1.749759,-0.3049 0.53435,-0.2032 0.9972,-0.48905 1.38855,-0.85782 0.39135,-0.36877 0.6959,-0.8014 0.91416,-1.29812 0.22577,-0.50424 0.33899,-1.05393 0.33899,-1.64847 0,-0.59455 -0.11322,-1.13988 -0.33899,-1.6366 -0.21826,-0.49671 -0.52281,-0.92986 -0.91416,-1.29863 -0.39135,-0.3763 -0.8542,-0.66599 -1.38855,-0.86919 -0.526811,-0.2032 -1.110055,-0.30489 -1.749759,-0.30489 z m 0,1.85156 c 0.301038,0 0.579726,0.0528 0.835608,0.15813 0.263408,0.10537 0.488813,0.25982 0.676961,0.46302 0.19568,0.19568 0.34629,0.43261 0.45165,0.71107 0.11289,0.27093 0.1695,0.57933 0.1695,0.92553 0,0.33866 -0.0566,0.64706 -0.1695,0.92552 -0.10536,0.27846 -0.25597,0.51975 -0.45165,0.72295 -0.188148,0.19568 -0.413553,0.34577 -0.676961,0.45114 -0.255882,0.10536 -0.53457,0.15813 -0.835608,0.15813 -0.301038,0 -0.583053,-0.0528 -0.84646,-0.15813 -0.255882,-0.10537 -0.481804,-0.25546 -0.677478,-0.45114 -0.188149,-0.2032 -0.338764,-0.44449 -0.451652,-0.72295 -0.105364,-0.27846 -0.15813,-0.58686 -0.15813,-0.92552 0,-0.3462 0.05277,-0.6546 0.15813,-0.92553 0.112888,-0.27846 0.263503,-0.51539 0.451652,-0.71107 0.195674,-0.2032 0.421596,-0.35765 0.677478,-0.46302 0.263407,-0.10535 0.545422,-0.15813 0.84646,-0.15813 z" />
          <path
             style="font-weight:800;font-stretch:normal;font-size:11.2889px;line-height:11.2889px;font-family:Montserrat;-inkscape-font-specification:'Montserrat Ultra-Bold';fill:#b4417e;stroke:#6a2e4f;stroke-width:0.264583;stroke-dasharray:none;stroke-opacity:1"
             d="m 83.743884,256.72957 q -0.93698,0 -1.73849,-0.29351 -0.79022,-0.3048 -1.37725,-0.85796 -0.57573,-0.55315 -0.90311,-1.29822 -0.32738,-0.75636 -0.32738,-1.65947 0,-0.90311 0.32738,-1.64818 0.32738,-0.75636 0.90311,-1.3095 0.58703,-0.55317 1.37725,-0.84668 0.80151,-0.3048 1.73849,-0.3048 1.09502,0 1.95298,0.38383 0.86924,0.38382 1.44498,1.10631 l -1.4224,1.28693 q -0.38383,-0.45155 -0.84667,-0.68862 -0.45156,-0.23707 -1.016,-0.23707 -0.48542,0 -0.89182,0.15804 -0.40641,0.15805 -0.69992,0.46285 -0.28222,0.29351 -0.45155,0.7112 -0.15805,0.41769 -0.15805,0.92569 0,0.50801 0.15805,0.92569 0.16933,0.41769 0.45155,0.72249 0.29351,0.29351 0.69992,0.45156 0.4064,0.15804 0.89182,0.15804 0.56444,0 1.016,-0.23707 0.46284,-0.23706 0.84667,-0.68862 l 1.4224,1.28694 q -0.57574,0.7112 -1.44498,1.10631 -0.85796,0.38382 -1.95298,0.38382 z"
             id="path238" />
          <path
             style="font-weight:800;font-stretch:normal;font-size:11.2889px;line-height:11.2889px;font-family:Montserrat;-inkscape-font-specification:'Montserrat Ultra-Bold';fill:#b4417e;stroke:#6a2e4f;stroke-width:0.264583;stroke-dasharray:none;stroke-opacity:1"
             d="m 75.977114,256.57153 v -7.90224 h 2.2352 v 7.90224 z"
             id="path239" />
          <path
             style="font-weight:800;font-stretch:normal;font-size:11.2889px;line-height:11.2889px;font-family:Montserrat;-inkscape-font-specification:'Montserrat Ultra-Bold';fill:#b4417e;stroke:#6a2e4f;stroke-width:0.264583;stroke-dasharray:none;stroke-opacity:1"
             d="m 72.533994,248.66929 h 1.84009 l 0.0226,7.90224 h -2.05458 l -0.0226,-4.18808 -2.032,3.40914 h -0.99343 l -2.02071,-3.29645 v 4.07539 h -2.06587 v -7.90224 h 1.84009 l 2.79201,4.54802 z"
             id="path240"
             sodipodi:nodetypes="cccccccccccccc" />
          <path
             style="font-weight:800;font-stretch:normal;font-size:11.2889px;line-height:11.2889px;font-family:Montserrat;-inkscape-font-specification:'Montserrat Ultra-Bold';fill:#b4417e;stroke:#6a2e4f;stroke-width:0.264583;stroke-dasharray:none;stroke-opacity:1"
             d="m 48.748274,256.57153 h -2.19005 v -7.90224 h 1.84009 l 3.48827,4.21123 v -4.21123 h 2.19005 v 7.90224 h -1.84009 l -3.48827,-4.21122 z"
             id="path241"
             sodipodi:nodetypes="ccccccccccc" />
          <path
             style="font-weight:800;font-stretch:normal;font-size:11.2889px;line-height:11.2889px;font-family:Montserrat;-inkscape-font-specification:'Montserrat Ultra-Bold';fill:#b4417e;stroke:#6a2e4f;stroke-width:0.264583;stroke-dasharray:none;stroke-opacity:1"
             d="m 33.023969,256.72957 q -0.936979,0 -1.738491,-0.29351 -0.790223,-0.3048 -1.377246,-0.85796 -0.575734,-0.55315 -0.903112,-1.29822 -0.327378,-0.75636 -0.327378,-1.65947 0,-0.90311 0.327378,-1.64818 0.327378,-0.75636 0.903112,-1.3095 0.587023,-0.55317 1.377246,-0.84668 0.801512,-0.3048 1.738491,-0.3048 1.095023,0 1.95298,0.38383 0.869245,0.38382 1.444979,1.10631 l -1.422402,1.28693 q -0.383822,-0.45155 -0.846667,-0.68862 -0.451556,-0.23707 -1.016001,-0.23707 -0.485423,0 -0.891823,0.15804 -0.406401,0.15805 -0.699912,0.46285 -0.282223,0.29351 -0.451556,0.7112 -0.158045,0.41769 -0.158045,0.92569 0,0.50801 0.158045,0.92569 0.169333,0.41769 0.451556,0.72249 0.293511,0.29351 0.699912,0.45156 0.4064,0.15804 0.891823,0.15804 0.564445,0 1.016001,-0.23707 0.462845,-0.23706 0.846667,-0.68862 l 1.422402,1.28694 q -0.575734,0.7112 -1.444979,1.10631 -0.857957,0.38382 -1.95298,0.38382 z"
             id="path242" />
          <path
             id="path243"
             style="font-weight:800;font-stretch:normal;font-size:11.2889px;line-height:11.2889px;font-family:Montserrat;-inkscape-font-specification:'Montserrat Ultra-Bold';fill:#b4417e;stroke:#6a2e4f;stroke-width:0.264583;stroke-dasharray:none;stroke-opacity:1"
             d="m 23.710616,254.84432 h 4.131737 v 1.72721 h -6.344362 v -7.90224 h 6.197607 v 1.72721 h -3.984982 v 1.3321 h 3.510848 v 1.67074 h -3.510848 z"
             sodipodi:nodetypes="ccccccccccccc" />
        </g>
        <g
           id="g252"
           style="stroke-width:0.264583;stroke-dasharray:none"
           transform="translate(136.46743,-421.96211)">
          <path
             id="path244"
             style="font-weight:800;font-stretch:normal;font-size:11.2889px;line-height:11.2889px;font-family:Montserrat;-inkscape-font-specification:'Montserrat Ultra-Bold';fill:#b4417e;stroke:#6a2e4f;stroke-width:0.264583;stroke-dasharray:none;stroke-opacity:1"
             d="m 79.973226,260.88393 v 7.90186 h 4.068901 c 1.011787,0 1.779645,-0.18801 2.303477,-0.56432 0.53101,-0.38382 0.79624,-0.91814 0.79624,-1.603 0,-0.45907 -0.111124,-0.84663 -0.333574,-1.16272 -0.215273,-0.32362 -0.520317,-0.56823 -0.914985,-0.73381 -0.04559,-0.02 -0.09202,-0.0386 -0.13944,-0.0563 0.30042,-0.16987 0.537116,-0.38432 0.710012,-0.64336 0.208098,-0.30857 0.311894,-0.6664 0.311894,-1.07281 0,-0.61712 -0.243738,-1.11352 -0.731693,-1.48982 -0.487954,-0.38383 -1.226992,-0.57569 -2.21725,-0.57569 z m 2.109837,1.61438 h 1.463877 c 0.358791,0 0.627686,0.0638 0.80708,0.19171 0.179395,0.12043 0.269028,0.30842 0.269028,0.56431 0,0.25589 -0.08964,0.44774 -0.269028,0.57568 -0.179394,0.12794 -0.448289,0.19223 -0.80708,0.19223 h -1.463877 z m 1.786611,3.07009 c 0.365966,0 0.642188,0.0681 0.82876,0.20361 0.193747,0.12794 0.290706,0.32696 0.290706,0.5979 0,0.27094 -0.09696,0.47431 -0.290706,0.60978 -0.186572,0.12795 -0.462794,0.19223 -0.82876,0.19223 h -1.786611 v -1.60352 0 z"
             sodipodi:nodetypes="ccscsccccscsccscsssccscscscccs" />
          <path
             id="path245"
             style="font-weight:800;font-stretch:normal;font-size:11.2889px;line-height:11.2889px;font-family:Montserrat;-inkscape-font-specification:'Montserrat Ultra-Bold';fill:#b4417e;stroke:#6a2e4f;stroke-width:0.264583;stroke-dasharray:none;stroke-opacity:1"
             d="m 73.673319,260.84438 -3.488159,7.90185 h 2.280481 l 0.615983,-1.53531 h 3.3507 l 0.6165,1.53531 h 2.325445 l -3.499535,-7.90185 z m 1.083654,2.19212 1.013892,2.52646 h -2.027784 z" />
          <path
             id="path246"
             style="font-weight:800;font-stretch:normal;font-size:11.2889px;line-height:11.2889px;font-family:Montserrat;-inkscape-font-specification:'Montserrat Ultra-Bold';fill:#b4417e;stroke:#6a2e4f;stroke-width:0.264583;stroke-dasharray:none;stroke-opacity:1"
             d="m 29.140202,260.88393 v 7.90186 h 2.235522 v -2.09962 h 1.220081 l 1.43247,2.09962 h 2.393653 l -1.705323,-2.48462 c 0.477873,-0.23005 0.850922,-0.54619 1.118278,-0.94722 0.285986,-0.43649 0.428915,-0.95161 0.428915,-1.54616 0,-0.90311 -0.312241,-1.61443 -0.936894,-2.13371 -0.617127,-0.52683 -1.5016,-0.79015 -2.653068,-0.79015 z m 2.235522,1.76115 h 1.241785 c 0.466608,0 0.812401,0.10116 1.038179,0.30436 0.233304,0.2032 0.350366,0.48959 0.350366,0.85835 0,0.36124 -0.117062,0.64326 -0.350366,0.84646 -0.225778,0.20321 -0.571571,0.30489 -1.038179,0.30489 h -1.241785 z" />
          <path
             id="path247"
             style="font-weight:800;font-stretch:normal;font-size:11.2889px;line-height:11.2889px;font-family:Montserrat;-inkscape-font-specification:'Montserrat Ultra-Bold';fill:#b4417e;stroke:#6a2e4f;stroke-width:0.264583;stroke-dasharray:none;stroke-opacity:1"
             d="m 21.497994,260.88393 v 7.90186 h 4.068901 c 1.011787,0 1.779645,-0.18801 2.303477,-0.56432 0.53101,-0.38382 0.79624,-0.91814 0.79624,-1.603 0,-0.45907 -0.111124,-0.84663 -0.333574,-1.16272 -0.215273,-0.32362 -0.520317,-0.56823 -0.914985,-0.73381 -0.04559,-0.02 -0.09202,-0.0386 -0.13944,-0.0563 0.30042,-0.16987 0.537116,-0.38432 0.710012,-0.64336 0.208098,-0.30857 0.311894,-0.6664 0.311894,-1.07281 0,-0.61712 -0.243738,-1.11352 -0.731693,-1.48982 -0.487954,-0.38383 -1.226992,-0.57569 -2.21725,-0.57569 z m 2.109837,1.61438 h 1.463877 c 0.358791,0 0.627686,0.0638 0.80708,0.19171 0.179395,0.12043 0.269028,0.30842 0.269028,0.56431 0,0.25589 -0.08964,0.44774 -0.269028,0.57568 -0.179394,0.12794 -0.448289,0.19223 -0.80708,0.19223 h -1.463877 z m 1.786611,3.07009 c 0.365966,0 0.642188,0.0681 0.82876,0.20361 0.193747,0.12794 0.290706,0.32696 0.290706,0.5979 0,0.27094 -0.09696,0.47431 -0.290706,0.60978 -0.186572,0.12795 -0.462794,0.19223 -0.82876,0.19223 h -1.786611 v -1.60352 0 z"
             sodipodi:nodetypes="ccscsccccscsccscsssccscscscccs" />
          <path
             style="font-weight:800;font-stretch:normal;font-size:11.2889px;line-height:11.2889px;font-family:Montserrat;-inkscape-font-specification:'Montserrat Ultra-Bold';fill:#b4417e;stroke:#6a2e4f;stroke-width:0.264583;stroke-dasharray:none;stroke-opacity:1"
             d="m 63.700194,268.74644 v -7.90222 h 2.2352 v 6.12988 h 3.77049 v 1.77234 z"
             id="path248" />
          <path
             style="font-weight:800;font-stretch:normal;font-size:11.2889px;line-height:11.2889px;font-family:Montserrat;-inkscape-font-specification:'Montserrat Ultra-Bold';fill:#b4417e;stroke:#6a2e4f;stroke-width:0.264583;stroke-dasharray:none;stroke-opacity:1"
             d="m 55.092664,260.88376 h 2.19005 v 7.90224 h -1.84009 l -3.48827,-4.21123 v 4.21123 h -2.19005 v -7.90224 h 1.84009 l 3.48827,4.21123 z"
             id="path249"
             sodipodi:nodetypes="ccccccccccc" />
          <path
             style="font-weight:800;font-stretch:normal;font-size:11.2889px;line-height:11.2889px;font-family:Montserrat;-inkscape-font-specification:'Montserrat Ultra-Bold';fill:#b4417e;stroke:#6a2e4f;stroke-width:0.264583;stroke-dasharray:none;stroke-opacity:1"
             d="m 46.558224,268.786 v -7.90224 h 2.2352 v 7.90224 z"
             id="path250" />
          <path
             id="path251"
             style="font-weight:800;font-stretch:normal;font-size:11.2889px;line-height:11.2889px;font-family:Montserrat;-inkscape-font-specification:'Montserrat Ultra-Bold';fill:#b4417e;stroke:#6a2e4f;stroke-width:0.264583;stroke-dasharray:none;stroke-opacity:1"
             d="m 40.383679,260.88393 -3.488159,7.90186 h 2.280481 l 0.615983,-1.53532 h 3.350699 l 0.6165,1.53532 h 2.325451 l -3.499541,-7.90186 z m 1.083654,2.19212 1.013892,2.52646 h -2.027784 z" />
          <path
             id="path252"
             style="font-weight:800;font-stretch:normal;font-size:11.2889px;line-height:11.2889px;font-family:Montserrat;-inkscape-font-specification:'Montserrat Ultra-Bold';fill:#b4417e;stroke:#6a2e4f;stroke-width:0.264583;stroke-dasharray:none;stroke-opacity:1"
             d="m 75.880424,260.84438 3.48816,7.90186 h -2.28048 l -0.61598,-1.53532 h -3.3507 l -0.6165,1.53532 h -2.32545 l 3.49954,-7.90186 z m -1.08365,2.19211 -1.0139,2.52646 h 2.02779 z" />
        </g>
        <rect
           style="fill:none;stroke:none;stroke-width:0.352777"
           id="rect255"
           width="129.32449"
           height="50.210201"
           x="98.83371"
           y="-194.15611" />
      </g>
    </g>
  </g>
</svg>
